<svg xmlns="http://www.w3.org/2000/svg" width="297mm" height="210mm" viewBox="0 0 297 210">

  <style>
    svg {
      background: none;
    }
    line, polyline, path, rect, circle {
      stroke: #000;
      stroke-width: 0.45;
      fill: none;
      stroke-linecap: round;
      stroke-linejoin: round;
      vector-effect: non-scaling-stroke;
    }
    text {
      fill: #000;
      font-family: Arial, 'Microsoft YaHei', sans-serif;
      letter-spacing: 0;
    }
  </style>
  <circle cx="18" cy="22" r="2.2" fill="none" />
  <text x="11" y="23.1" font-size="3.2" text-anchor="end">BAT+</text>
  <circle cx="18" cy="40" r="2.2" fill="none" />
  <text x="11" y="41.1" font-size="3.2" text-anchor="end">BAT-</text>
  <line x1="20.2" y1="22" x2="32" y2="22" />
  <line x1="32" y1="22" x2="41.5" y2="22" />
  <polyline points="41.5,17 41.5,27 50.2,22 41.5,17" />
  <line x1="50.2" y1="16.5" x2="50.2" y2="27.5" />
  <polyline points="52.2,16.5 50.2,16.5 50.2,18.8" />
  <polyline points="48.2,27.5 50.2,27.5 50.2,25.2" />
  <line x1="50.2" y1="22" x2="60" y2="22" />
  <text x="46.0" y="12.5" font-size="3.2" text-anchor="middle">D1</text>
  <text x="46.0" y="31.0" font-size="3.2" text-anchor="middle">1N5819</text>
  <circle cx="60" cy="22" r="0.85" fill="#000" />
  <line x1="60" y1="22" x2="118" y2="22" />
  <line x1="60" y1="22" x2="60" y2="152" />
  <text x="85" y="17" font-size="3.2" text-anchor="middle">+VBAT_SW</text>
  <line x1="20.2" y1="40" x2="28" y2="40" />
  <line x1="28" y1="40" x2="28" y2="43" />
  <line x1="24.8" y1="43" x2="31.2" y2="43" />
  <line x1="25.9" y1="45" x2="30.1" y2="45" />
  <line x1="27.0" y1="47" x2="29.0" y2="47" />
  <line x1="82" y1="22" x2="82" y2="32.7" />
  <line x1="77" y1="32.7" x2="87" y2="32.7" />
  <line x1="77" y1="38.3" x2="87" y2="38.3" />
  <line x1="82" y1="38.3" x2="82" y2="49" />
  <text x="75.5" y="30.9" font-size="3.8" text-anchor="middle">+</text>
  <text x="89" y="34.0" font-size="3.2" text-anchor="start">C1</text>
  <text x="89" y="39.5" font-size="3.2" text-anchor="start">100uF/10V</text>
  <line x1="82" y1="49" x2="82" y2="52" />
  <line x1="78.8" y1="52" x2="85.2" y2="52" />
  <line x1="79.9" y1="54" x2="84.1" y2="54" />
  <line x1="81.0" y1="56" x2="83.0" y2="56" />
  <line x1="102" y1="22" x2="102" y2="32.7" />
  <line x1="97" y1="32.7" x2="107" y2="32.7" />
  <line x1="97" y1="38.3" x2="107" y2="38.3" />
  <line x1="102" y1="38.3" x2="102" y2="49" />
  <text x="109" y="34.0" font-size="3.2" text-anchor="start">C2</text>
  <text x="109" y="39.5" font-size="3.2" text-anchor="start">100nF</text>
  <line x1="102" y1="49" x2="102" y2="52" />
  <line x1="98.8" y1="52" x2="105.2" y2="52" />
  <line x1="99.9" y1="54" x2="104.1" y2="54" />
  <line x1="101.0" y1="56" x2="103.0" y2="56" />
  <line x1="60" y1="58" x2="90" y2="58" />
  <line x1="90" y1="58" x2="95" y2="58" />
  <circle cx="95" cy="58" r="1.1" fill="none" />
  <circle cx="121" cy="58" r="1.1" fill="none" />
  <line x1="121" y1="58" x2="126" y2="58" />
  <line x1="96.5" y1="56.8" x2="119.0" y2="52.0" />
  <text x="108.0" y="48.0" font-size="3.2" text-anchor="middle">S1</text>
  <text x="108.0" y="66.0" font-size="3.2" text-anchor="middle">6x6mm</text>
  <line x1="126" y1="58" x2="174" y2="58" />
  <circle cx="138" cy="58" r="0.85" fill="#000" />
  <line x1="138" y1="36" x2="138" y2="40.95" />
  <rect x="135.8" y="40.95" width="4.4" height="12.100000000000001" rx="0" />
  <line x1="138" y1="53.05" x2="138" y2="58" />
  <text x="144" y="43.0" font-size="3.2" text-anchor="start">R2</text>
  <text x="144" y="55.0" font-size="3.2" text-anchor="start">1kΩ</text>
  <line x1="138" y1="33" x2="138" y2="38" />
  <polyline points="135,33 138,30 141,33" />
  <text x="138" y="28" font-size="3.2" text-anchor="middle">+3.3V</text>
  <line x1="60" y1="76" x2="76" y2="76" />
  <line x1="76" y1="76" x2="82.5" y2="76" />
  <rect x="82.5" y="73.8" width="13" height="4.4" rx="0" />
  <line x1="95.5" y1="76" x2="102" y2="76" />
  <text x="89.0" y="70.8" font-size="3.2" text-anchor="middle">R1</text>
  <text x="89.0" y="83.0" font-size="3.2" text-anchor="middle">1kΩ</text>
  <line x1="108" y1="76" x2="115.5" y2="76" />
  <polyline points="115.5,71 115.5,81 124.2,76 115.5,71" />
  <line x1="124.2" y1="70.5" x2="124.2" y2="81.5" />
  <polyline points="123.5,67.5 128.5,64.0 127.0,67.0" />
  <polyline points="127.0,69.5 132.0,66.0 130.5,69.0" />
  <line x1="124.2" y1="76" x2="132" y2="76" />
  <text x="120.0" y="66.5" font-size="3.2" text-anchor="middle">LED1</text>
  <text x="120.0" y="85.0" font-size="3.2" text-anchor="middle">RED TX</text>
  <line x1="102" y1="76" x2="108" y2="76" />
  <line x1="132" y1="76" x2="174" y2="76" />
  <line x1="60" y1="100" x2="76" y2="100" />
  <line x1="76" y1="100" x2="82.5" y2="100" />
  <rect x="82.5" y="97.8" width="13" height="4.4" rx="0" />
  <line x1="95.5" y1="100" x2="102" y2="100" />
  <text x="89.0" y="94.8" font-size="3.2" text-anchor="middle">R3</text>
  <text x="89.0" y="107.0" font-size="3.2" text-anchor="middle">1kΩ</text>
  <line x1="108" y1="100" x2="115.5" y2="100" />
  <polyline points="115.5,95 115.5,105 124.2,100 115.5,95" />
  <line x1="124.2" y1="94.5" x2="124.2" y2="105.5" />
  <polyline points="123.5,91.5 128.5,88.0 127.0,91.0" />
  <polyline points="127.0,93.5 132.0,90.0 130.5,93.0" />
  <line x1="124.2" y1="100" x2="132" y2="100" />
  <text x="120.0" y="90.5" font-size="3.2" text-anchor="middle">LED2</text>
  <text x="120.0" y="109.0" font-size="3.2" text-anchor="middle">GREEN RX</text>
  <line x1="102" y1="100" x2="108" y2="100" />
  <line x1="132" y1="100" x2="174" y2="100" />
  <circle cx="75" cy="113" r="8.0" fill="none" />
  <line x1="83" y1="110" x2="88" y2="110" />
  <line x1="75" y1="121" x2="75" y2="129" />
  <text x="71.4" y="111.2" font-size="3.8" text-anchor="middle">+</text>
  <text x="71.4" y="117.5" font-size="3.8" text-anchor="middle">-</text>
  <text x="61.0" y="114.0" font-size="3.2" text-anchor="end">MIC1</text>
  <text x="75" y="137.0" font-size="3.2" text-anchor="middle">Electret</text>
  <polyline points="88,110 88,118 94,118" />
  <line x1="94" y1="118" x2="104.7" y2="118" />
  <line x1="104.7" y1="113" x2="104.7" y2="123" />
  <line x1="110.3" y1="113" x2="110.3" y2="123" />
  <line x1="110.3" y1="118" x2="121" y2="118" />
  <text x="107.5" y="110.0" font-size="3.2" text-anchor="middle">C3</text>
  <text x="107.5" y="127.5" font-size="3.2" text-anchor="middle">10nF</text>
  <line x1="121" y1="118" x2="174" y2="118" />
  <line x1="75" y1="129" x2="75" y2="132" />
  <line x1="71.8" y1="132" x2="78.2" y2="132" />
  <line x1="72.9" y1="134" x2="77.1" y2="134" />
  <line x1="74.0" y1="136" x2="76.0" y2="136" />
  <line x1="174" y1="126" x2="174" y2="166" />
  <line x1="160" y1="166" x2="164.2" y2="166" />
  <line x1="164.2" y1="161" x2="164.2" y2="171" />
  <line x1="169.8" y1="161" x2="169.8" y2="171" />
  <line x1="169.8" y1="166" x2="174" y2="166" />
  <text x="181" y="158" font-size="3.2" text-anchor="start">C4</text>
  <text x="181" y="164" font-size="3.2" text-anchor="start">100nF</text>
  <circle cx="160" cy="166" r="0.85" fill="#000" />
  <line x1="154" y1="166" x2="160" y2="166" />
  <line x1="160" y1="140" x2="160" y2="146.5" />
  <rect x="157.8" y="146.5" width="4.4" height="13" rx="0" />
  <line x1="160" y1="159.5" x2="160" y2="166" />
  <text x="154" y="149.0" font-size="3.2" text-anchor="end">R4</text>
  <text x="154" y="161.0" font-size="3.2" text-anchor="end">100kΩ</text>
  <line x1="160" y1="133" x2="160" y2="136" />
  <line x1="156.8" y1="136" x2="163.2" y2="136" />
  <line x1="157.9" y1="138" x2="162.1" y2="138" />
  <line x1="159.0" y1="140" x2="161.0" y2="140" />
  <rect x="102" y="146" width="52" height="38" rx="0" />
  <text x="128.0" y="162.5" font-size="3.2" text-anchor="middle">U1</text>
  <text x="128.0" y="168.2" font-size="3.2" text-anchor="middle">LM4871</text>
  <line x1="108" y1="141" x2="108" y2="146" />
  <text x="109.2" y="149.6" font-size="2.7" text-anchor="start">1</text>
  <line x1="150" y1="141" x2="150" y2="146" />
  <text x="151.2" y="149.6" font-size="2.7" text-anchor="start">4</text>
  <line x1="130" y1="141" x2="130" y2="146" />
  <text x="131.2" y="149.6" font-size="2.7" text-anchor="start">5</text>
  <line x1="116" y1="184" x2="116" y2="189" />
  <text x="117.2" y="181.8" font-size="2.7" text-anchor="start">2</text>
  <line x1="140" y1="184" x2="140" y2="189" />
  <text x="141.2" y="181.8" font-size="2.7" text-anchor="start">6</text>
  <line x1="154" y1="166" x2="159" y2="166" />
  <text x="151.5" y="167.1" font-size="2.7" text-anchor="end">3</text>
  <line x1="154" y1="176" x2="159" y2="176" />
  <text x="151.5" y="177.1" font-size="2.7" text-anchor="end">8</text>
  <line x1="108" y1="146" x2="108" y2="132" />
  <line x1="108" y1="132" x2="112.05" y2="132" />
  <rect x="112.05" y="129.8" width="9.9" height="4.4" rx="0" />
  <line x1="121.95" y1="132" x2="126" y2="132" />
  <text x="117.0" y="126.8" font-size="3.2" text-anchor="middle">R5</text>
  <text x="117.0" y="139.0" font-size="3.2" text-anchor="middle">100kΩ</text>
  <line x1="130" y1="132" x2="137.2" y2="132" />
  <line x1="137.2" y1="127" x2="137.2" y2="137" />
  <line x1="142.8" y1="127" x2="142.8" y2="137" />
  <line x1="142.8" y1="132" x2="150" y2="132" />
  <text x="140.0" y="124.0" font-size="3.2" text-anchor="middle">C5</text>
  <text x="140.0" y="141.5" font-size="3.2" text-anchor="middle">100nF</text>
  <line x1="126" y1="132" x2="130" y2="132" />
  <line x1="150" y1="132" x2="150" y2="146" />
  <line x1="116" y1="184" x2="116" y2="191" />
  <line x1="116" y1="191" x2="116" y2="194" />
  <line x1="112.8" y1="194" x2="119.2" y2="194" />
  <line x1="113.9" y1="196" x2="118.1" y2="196" />
  <line x1="115.0" y1="198" x2="117.0" y2="198" />
  <polyline points="60,140 130,140 130,146" />
  <circle cx="130" cy="140" r="0.85" fill="#000" />
  <line x1="70" y1="140" x2="70" y2="150.2" />
  <line x1="65" y1="150.2" x2="75" y2="150.2" />
  <line x1="65" y1="155.8" x2="75" y2="155.8" />
  <line x1="70" y1="155.8" x2="70" y2="166" />
  <text x="77" y="151.5" font-size="3.2" text-anchor="start">C6</text>
  <text x="77" y="157.0" font-size="3.2" text-anchor="start">100nF</text>
  <line x1="70" y1="166" x2="70" y2="169" />
  <line x1="66.8" y1="169" x2="73.2" y2="169" />
  <line x1="67.9" y1="171" x2="72.1" y2="171" />
  <line x1="69.0" y1="173" x2="71.0" y2="173" />
  <line x1="140" y1="184" x2="140" y2="191" />
  <line x1="140" y1="191" x2="140" y2="194" />
  <line x1="136.8" y1="194" x2="143.2" y2="194" />
  <line x1="137.9" y1="196" x2="142.1" y2="196" />
  <line x1="139.0" y1="198" x2="141.0" y2="198" />
  <polyline points="154,176 158,176 158,184 162,184" />
  <line x1="162" y1="184" x2="173.2" y2="184" />
  <line x1="173.2" y1="179" x2="173.2" y2="189" />
  <line x1="178.8" y1="179" x2="178.8" y2="189" />
  <line x1="178.8" y1="184" x2="190" y2="184" />
  <text x="169.6" y="178.5" font-size="3.8" text-anchor="middle">+</text>
  <text x="176.0" y="176.0" font-size="3.2" text-anchor="middle">C7</text>
  <text x="176.0" y="193.5" font-size="3.2" text-anchor="middle">100uF/10V</text>
  <line x1="190" y1="184" x2="207" y2="184" />
  <rect x="207" y="179.0" width="4.0" height="10.0" rx="0" />
  <polyline points="211,178 220,172 220,196 211,190" />
  <path d="M 223 177 Q 229 184 223 191" />
  <path d="M 227 174 Q 235 184 227 194" />
  <text x="221" y="168" font-size="3.2" text-anchor="middle">SPK1</text>
  <text x="237" y="202" font-size="3.2" text-anchor="start">8Ω/0.5W</text>
  <line x1="220" y1="184" x2="220" y2="198" />
  <line x1="220" y1="198" x2="220" y2="201" />
  <line x1="216.8" y1="201" x2="223.2" y2="201" />
  <line x1="217.9" y1="203" x2="222.1" y2="203" />
  <line x1="219.0" y1="205" x2="221.0" y2="205" />
  <rect x="174" y="48" width="50" height="88" rx="0" />
  <text x="199.0" y="56.0" font-size="3.2" text-anchor="middle">CORE</text>
  <text x="199.0" y="61.0" font-size="3.2" text-anchor="middle">SUBBOARD</text>
  <line x1="169" y1="58" x2="174" y2="58" />
  <text x="176.5" y="59.1" font-size="2.9" text-anchor="start">PTT</text>
  <line x1="169" y1="76" x2="174" y2="76" />
  <text x="176.5" y="77.1" font-size="2.9" text-anchor="start">TXLED</text>
  <line x1="169" y1="100" x2="174" y2="100" />
  <text x="176.5" y="101.1" font-size="2.9" text-anchor="start">RXLED</text>
  <line x1="169" y1="118" x2="174" y2="118" />
  <text x="176.5" y="119.1" font-size="2.9" text-anchor="start">MIC_IN</text>
  <line x1="169" y1="126" x2="174" y2="126" />
  <text x="176.5" y="127.1" font-size="2.9" text-anchor="start">AF_OUT</text>
  <line x1="224" y1="58" x2="229" y2="58" />
  <text x="221.5" y="59.1" font-size="2.9" text-anchor="end">PD</text>
  <line x1="224" y1="72" x2="229" y2="72" />
  <text x="221.5" y="73.1" font-size="2.9" text-anchor="end">SQ</text>
  <line x1="224" y1="86" x2="229" y2="86" />
  <text x="221.5" y="87.1" font-size="2.9" text-anchor="end">TXD</text>
  <line x1="224" y1="100" x2="229" y2="100" />
  <text x="221.5" y="101.1" font-size="2.9" text-anchor="end">RXD</text>
  <line x1="224" y1="114" x2="229" y2="114" />
  <text x="221.5" y="115.1" font-size="2.9" text-anchor="end">GND</text>
  <line x1="224" y1="128" x2="229" y2="128" />
  <text x="221.5" y="129.1" font-size="2.9" text-anchor="end">+3V</text>
  <line x1="224" y1="58" x2="255" y2="58" />
  <circle cx="260" cy="58" r="1.4" fill="none" />
  <text x="265" y="59.1" font-size="3.2" text-anchor="start">PD</text>
  <line x1="224" y1="72" x2="255" y2="72" />
  <circle cx="260" cy="72" r="1.4" fill="none" />
  <text x="265" y="73.1" font-size="3.2" text-anchor="start">SQ</text>
  <line x1="224" y1="86" x2="255" y2="86" />
  <circle cx="260" cy="86" r="1.4" fill="none" />
  <text x="265" y="87.1" font-size="3.2" text-anchor="start">TXD</text>
  <line x1="224" y1="100" x2="255" y2="100" />
  <circle cx="260" cy="100" r="1.4" fill="none" />
  <text x="265" y="101.1" font-size="3.2" text-anchor="start">RXD</text>
  <line x1="224" y1="114" x2="255" y2="114" />
  <circle cx="260" cy="114" r="1.4" fill="none" />
  <text x="265" y="115.1" font-size="3.2" text-anchor="start">GND</text>
  <line x1="224" y1="128" x2="255" y2="128" />
  <circle cx="260" cy="128" r="1.4" fill="none" />
  <text x="265" y="129.1" font-size="3.2" text-anchor="start">+3V</text>
  <text x="260" y="48" font-size="3.2" text-anchor="middle">J1</text>
</svg>
