<svg xmlns="http://www.w3.org/2000/svg" width="297mm" height="210mm" viewBox="0 0 297 210">

  <style>
    svg {
      background: none;
    }
    line, polyline, path, rect, circle {
      stroke: #000;
      stroke-width: 0.45;
      fill: none;
      stroke-linecap: round;
      stroke-linejoin: round;
      vector-effect: non-scaling-stroke;
    }
    .rf {
      stroke-width: 1.05;
    }
    .dash {
      stroke-dasharray: 2.4 1.8;
    }
    text {
      fill: #000;
      font-family: Arial, 'Microsoft YaHei', sans-serif;
      letter-spacing: 0;
    }
  </style>
  <rect class="" x="14" y="84" width="20" height="12" rx="0" />
  <text x="24" y="81" font-size="3.2" text-anchor="middle">核心子板</text>
  <text x="24" y="91.1" font-size="3.2" text-anchor="middle">RF_OUT</text>
  <line class="rf" x1="34" y1="90" x2="42" y2="90" />
  <line class="rf" x1="42" y1="90" x2="47" y2="90" />
  <path class="rf" d="M 47 90 A 3.75 3.75 0 0 1 54.5 90 A 3.75 3.75 0 0 1 62.0 90 A 3.75 3.75 0 0 1 69.5 90 A 3.75 3.75 0 0 1 77.0 90" />
  <line class="rf" x1="77" y1="90" x2="82" y2="90" />
  <text x="62.0" y="79" font-size="3.2" text-anchor="middle">L2</text>
  <text x="62.0" y="100" font-size="3.2" text-anchor="middle">27nH 贴片电感</text>
  <circle class="" cx="92" cy="90" r="0.9" fill="#000" />
  <line class="rf" x1="82" y1="90" x2="92" y2="90" />
  <line class="rf" x1="92" y1="90" x2="92" y2="106" />
  <line class="" x1="86" y1="106" x2="98" y2="106" />
  <line class="" x1="86" y1="112" x2="98" y2="112" />
  <line class="" x1="92" y1="112" x2="92" y2="142" />
  <text x="101" y="103" font-size="3.2" text-anchor="start">C4</text>
  <text x="101" y="110" font-size="3.2" text-anchor="start">12pF 贴片电容</text>
  <line class="rf" x1="104" y1="90" x2="109" y2="90" />
  <path class="rf" d="M 109 90 A 3.75 3.75 0 0 1 116.5 90 A 3.75 3.75 0 0 1 124.0 90 A 3.75 3.75 0 0 1 131.5 90 A 3.75 3.75 0 0 1 139.0 90" />
  <line class="rf" x1="139" y1="90" x2="144" y2="90" />
  <text x="124.0" y="79" font-size="3.2" text-anchor="middle">L3</text>
  <text x="124.0" y="100" font-size="3.2" text-anchor="middle">27nH 贴片电感</text>
  <line class="rf" x1="92" y1="90" x2="104" y2="90" />
  <circle class="" cx="154" cy="90" r="0.9" fill="#000" />
  <line class="rf" x1="144" y1="90" x2="154" y2="90" />
  <line class="rf" x1="154" y1="90" x2="154" y2="106" />
  <line class="" x1="148" y1="106" x2="160" y2="106" />
  <line class="" x1="148" y1="112" x2="160" y2="112" />
  <line class="" x1="154" y1="112" x2="154" y2="142" />
  <text x="163" y="103" font-size="3.2" text-anchor="start">C7</text>
  <text x="163" y="110" font-size="3.2" text-anchor="start">12pF 贴片电容</text>
  <line class="rf" x1="166" y1="90" x2="178.5" y2="90" />
  <rect class="" x="178.5" y="86.8" width="15" height="6.4" rx="0" />
  <line class="rf" x1="193.5" y1="90" x2="206" y2="90" />
  <text x="186.0" y="79.5" font-size="3.2" text-anchor="middle">R8</text>
  <text x="186.0" y="101" font-size="3.2" text-anchor="middle">33Ω 射频隔离电阻</text>
  <line class="rf" x1="154" y1="90" x2="166" y2="90" />
  <rect class="" x="216" y="86" width="12" height="8" rx="1.2" />
  <text x="222" y="82" font-size="3.2" text-anchor="middle">P1</text>
  <text x="222" y="101" font-size="3.2" text-anchor="middle">0.5W</text>
  <line class="rf" x1="206" y1="90" x2="216" y2="90" />
  <line class="rf" x1="228" y1="90" x2="240" y2="90" />
  <rect class="" x="216" y="54" width="12" height="8" rx="1.2" />
  <text x="222" y="50" font-size="3.2" text-anchor="middle">P2</text>
  <text x="222" y="69" font-size="3.2" text-anchor="middle">2W</text>
  <line class="dash" x1="222" y1="62" x2="222" y2="86" />
  <rect class="" x="240" y="78" width="16" height="24" rx="0" />
  <text x="248" y="73" font-size="3.2" text-anchor="middle">J1</text>
  <text x="248" y="108" font-size="3.2" text-anchor="middle">SMA天线座</text>
  <line class="rf" x1="240" y1="90" x2="256" y2="90" />
  <circle class="" cx="248" cy="90" r="2.0" fill="none" />
  <line class="" x1="248" y1="102" x2="248" y2="142" />
  <line class="rf" x1="240" y1="90" x2="248" y2="90" />
  <line class="rf" x1="256" y1="90" x2="272" y2="90" />
  <line class="rf" x1="272" y1="90" x2="272" y2="72" />
  <line class="rf" x1="272" y1="72" x2="263" y2="61" />
  <line class="rf" x1="272" y1="72" x2="281" y2="61" />
  <line class="rf" x1="272" y1="78" x2="265" y2="70" />
  <line class="rf" x1="272" y1="78" x2="279" y2="70" />
  <text x="272" y="55" font-size="3.2" text-anchor="middle">ANT1</text>
  <text x="272" y="100" font-size="3.2" text-anchor="middle">2dBi全向天线</text>
  <line class="" x1="92" y1="142" x2="248" y2="142" />
  <line class="" x1="170" y1="142" x2="170" y2="145" />
  <line class="" x1="166.8" y1="145" x2="173.2" y2="145" />
  <line class="" x1="167.9" y1="147" x2="172.1" y2="147" />
  <line class="" x1="169.0" y1="149" x2="171.0" y2="149" />
  <text x="178" y="147" font-size="3.2" text-anchor="start">系统地</text>
</svg>
