<svg xmlns="http://www.w3.org/2000/svg" width="297mm" height="210mm" viewBox="0 0 297 210">

  <defs>
    <marker id="arrow" markerWidth="7" markerHeight="7" refX="6" refY="3.5" orient="auto">
      <path d="M0,0 L7,3.5 L0,7" fill="none" stroke="#000" stroke-width="0.45" />
    </marker>
  </defs>
  <style>
    svg {
      background: none;
    }
    line, polyline, path, rect, circle {
      stroke: #000;
      stroke-width: 0.45;
      fill: none;
      stroke-linecap: round;
      stroke-linejoin: round;
      vector-effect: non-scaling-stroke;
    }
    .dash {
      stroke-dasharray: 2.5 1.8;
    }
    .arrow {
      stroke-width: 0.45;
    }
    text {
      fill: #000;
      font-family: Arial, 'Microsoft YaHei', sans-serif;
      letter-spacing: 0;
    }
  </style>
  <line class="" x1="28" y1="51" x2="28" y2="57" />
  <line class="" x1="24" y1="57" x2="32" y2="57" />
  <line class="" x1="25.6" y1="61" x2="30.4" y2="61" />
  <line class="" x1="28" y1="61" x2="28" y2="69" />
  <text x="18" y="56" font-size="3.1" text-anchor="end">+</text>
  <text x="18" y="64" font-size="3.1" text-anchor="end">-</text>
  <text x="28" y="76" font-size="3.1" text-anchor="middle">BT1</text>
  <text x="28" y="81" font-size="3.1" text-anchor="middle">3.7V Li-ion</text>
  <polyline class="" points="28,51 55,51 55,50 115,50" />
  <circle cx="55" cy="50" r="0.85" fill="#000" />
  <line class="" x1="68" y1="50" x2="68" y2="62.2" />
  <line class="" x1="63" y1="62.2" x2="73" y2="62.2" />
  <line class="" x1="63" y1="67.8" x2="73" y2="67.8" />
  <line class="" x1="68" y1="67.8" x2="68" y2="80" />
  <text x="61" y="61.0" font-size="3.1" text-anchor="end">C7</text>
  <text x="61" y="73.0" font-size="3.1" text-anchor="end">100nF</text>
  <line class="" x1="68" y1="80" x2="68" y2="83" />
  <line class="" x1="64.8" y1="83" x2="71.2" y2="83" />
  <line class="" x1="65.9" y1="85" x2="70.1" y2="85" />
  <line class="" x1="67.0" y1="87" x2="69.0" y2="87" />
  <line class="" x1="86" y1="50" x2="86" y2="62.2" />
  <line class="" x1="81" y1="62.2" x2="91" y2="62.2" />
  <line class="" x1="81" y1="67.8" x2="91" y2="67.8" />
  <line class="" x1="86" y1="67.8" x2="86" y2="80" />
  <text x="79.5" y="60.2" font-size="3.8" text-anchor="middle">+</text>
  <text x="93" y="61.0" font-size="3.1" text-anchor="start">C8</text>
  <text x="93" y="73.0" font-size="3.1" text-anchor="start">10uF</text>
  <line class="" x1="86" y1="80" x2="86" y2="83" />
  <line class="" x1="82.8" y1="83" x2="89.2" y2="83" />
  <line class="" x1="83.9" y1="85" x2="88.1" y2="85" />
  <line class="" x1="85.0" y1="87" x2="87.0" y2="87" />
  <line class="" x1="28" y1="69" x2="38" y2="69" />
  <line class="" x1="38" y1="69" x2="38" y2="72" />
  <line class="" x1="34.8" y1="72" x2="41.2" y2="72" />
  <line class="" x1="35.9" y1="74" x2="40.1" y2="74" />
  <line class="" x1="37.0" y1="76" x2="39.0" y2="76" />
  <line class="" x1="115" y1="62" x2="103" y2="62" />
  <line class="" x1="103" y1="62" x2="103" y2="65" />
  <line class="" x1="99.8" y1="65" x2="106.2" y2="65" />
  <line class="" x1="100.9" y1="67" x2="105.1" y2="67" />
  <line class="" x1="102.0" y1="69" x2="104.0" y2="69" />
  <line class="" x1="115" y1="77" x2="105" y2="77" />
  <line class="" x1="105" y1="58" x2="105" y2="62.275" />
  <rect class="" x="102.8" y="62.275" width="4.4" height="10.450000000000001" rx="0" />
  <line class="" x1="105" y1="72.725" x2="105" y2="77" />
  <text x="111" y="65.7" font-size="3.1" text-anchor="start">R5</text>
  <text x="111" y="71.5" font-size="3.1" text-anchor="start">10kΩ</text>
  <line class="" x1="105" y1="52" x2="105" y2="57" />
  <polyline class="" points="102,52 105,49 108,52" />
  <text x="105" y="47" font-size="3.1" text-anchor="middle">+3.3V</text>
  <line class="" x1="115" y1="91" x2="96" y2="91" />
  <line class="" x1="96" y1="72" x2="96" y2="76.275" />
  <rect class="" x="93.8" y="76.275" width="4.4" height="10.450000000000001" rx="0" />
  <line class="" x1="96" y1="86.725" x2="96" y2="91" />
  <text x="102" y="79.7" font-size="3.1" text-anchor="start">R6</text>
  <text x="102" y="85.5" font-size="3.1" text-anchor="start">10kΩ</text>
  <line class="" x1="96" y1="69" x2="96" y2="74" />
  <polyline class="" points="93,69 96,66 99,69" />
  <text x="96" y="64" font-size="3.1" text-anchor="middle">+3.3V</text>
  <rect class="" x="28" y="110" width="42" height="17" rx="0" />
  <text x="49.0" y="117.0" font-size="3.1" text-anchor="middle">J_MIC</text>
  <text x="49.0" y="122.5" font-size="3.1" text-anchor="middle">外部麦克风输入</text>
  <line class="" x1="70" y1="118" x2="115" y2="118" />
  <rect class="" x="28" y="137" width="42" height="17" rx="0" />
  <text x="49.0" y="144.0" font-size="3.1" text-anchor="middle">NET1</text>
  <text x="49.0" y="149.5" font-size="3.1" text-anchor="middle">高频匹配输入</text>
  <line class="" x1="70" y1="145" x2="115" y2="145" />
  <line class="" x1="230" y1="50" x2="240" y2="50" />
  <line class="" x1="240" y1="50" x2="248.0" y2="50" />
  <line class="" x1="248.0" y1="44.8" x2="248.0" y2="55.2" />
  <polyline class="" points="256.0,45 256.0,55 248.0,50 256.0,45" />
  <line class="" x1="256.0" y1="50" x2="264" y2="50" />
  <polyline class="" points="254.0,42 259.0,38 257.5,41" />
  <polyline class="" points="258.0,45 263.0,41 261.5,44" />
  <text x="252.0" y="36" font-size="3.1" text-anchor="middle">LED1</text>
  <text x="252.0" y="59" font-size="3.1" text-anchor="middle">RED 阴极</text>
  <circle cx="269" cy="50" r="1.45" fill="none" />
  <text x="274" y="51.1" font-size="3.1" text-anchor="start">A</text>
  <line class="" x1="230" y1="78" x2="240" y2="78" />
  <line class="" x1="240" y1="78" x2="248.0" y2="78" />
  <line class="" x1="248.0" y1="72.8" x2="248.0" y2="83.2" />
  <polyline class="" points="256.0,73 256.0,83 248.0,78 256.0,73" />
  <line class="" x1="256.0" y1="78" x2="264" y2="78" />
  <polyline class="" points="254.0,70 259.0,66 257.5,69" />
  <polyline class="" points="258.0,73 263.0,69 261.5,72" />
  <text x="252.0" y="64" font-size="3.1" text-anchor="middle">LED2</text>
  <text x="252.0" y="87" font-size="3.1" text-anchor="middle">GREEN 阴极</text>
  <circle cx="269" cy="78" r="1.45" fill="none" />
  <text x="274" y="79.1" font-size="3.1" text-anchor="start">A</text>
  <rect class="" x="238" y="89" width="44" height="16" rx="0" />
  <text x="260.0" y="95.5" font-size="3.1" text-anchor="middle">NET2</text>
  <text x="260.0" y="101.0" font-size="3.1" text-anchor="middle">高频匹配输出</text>
  <line class="" x1="230" y1="97" x2="238" y2="97" />
  <rect class="" x="238" y="111" width="44" height="16" rx="0" />
  <text x="260.0" y="117.5" font-size="3.1" text-anchor="middle">U1</text>
  <text x="260.0" y="123.0" font-size="3.1" text-anchor="middle">LM4871 IN</text>
  <line class="" x1="230" y1="119" x2="238" y2="119" />
  <rect class="" x="238" y="129" width="44" height="16" rx="0" />
  <text x="260.0" y="135.5" font-size="3.1" text-anchor="middle">EN1</text>
  <text x="260.0" y="141.0" font-size="3.1" text-anchor="middle">功放使能端</text>
  <line class="" x1="230" y1="137" x2="238" y2="137" />
  <line class="" x1="230" y1="152" x2="265" y2="152" />
  <circle cx="270" cy="152" r="1.45" fill="none" />
  <text x="275" y="153.1" font-size="3.1" text-anchor="start">TXD</text>
  <line class="" x1="230" y1="164" x2="265" y2="164" />
  <circle cx="270" cy="164" r="1.45" fill="none" />
  <text x="275" y="165.1" font-size="3.1" text-anchor="start">RXD</text>
  <text x="270" y="176" font-size="3.1" text-anchor="middle">J_UART</text>
  <rect class="" x="120" y="32" width="105" height="144" rx="0" />
  <text x="172.5" y="44" font-size="3.1" text-anchor="middle">U2</text>
  <text x="172.5" y="51" font-size="3.1" text-anchor="middle">集成化中频射频子板</text>
  <line class="" x1="115" y1="50" x2="120" y2="50" />
  <text x="122.5" y="51.1" font-size="2.8" text-anchor="start">VBAT</text>
  <line class="" x1="115" y1="62" x2="120" y2="62" />
  <text x="122.5" y="63.1" font-size="2.8" text-anchor="start">GND</text>
  <line class="" x1="115" y1="77" x2="120" y2="77" />
  <text x="122.5" y="78.1" font-size="2.8" text-anchor="start">PTT</text>
  <line class="" x1="115" y1="91" x2="120" y2="91" />
  <text x="122.5" y="92.1" font-size="2.8" text-anchor="start">PD</text>
  <line class="" x1="115" y1="118" x2="120" y2="118" />
  <text x="122.5" y="119.1" font-size="2.8" text-anchor="start">MIC_IN</text>
  <line class="" x1="115" y1="145" x2="120" y2="145" />
  <text x="122.5" y="146.1" font-size="2.8" text-anchor="start">RF_IN</text>
  <line class="" x1="225" y1="50" x2="230" y2="50" />
  <text x="222.5" y="51.1" font-size="2.8" text-anchor="end">TXLED</text>
  <line class="" x1="225" y1="78" x2="230" y2="78" />
  <text x="222.5" y="79.1" font-size="2.8" text-anchor="end">RXLED</text>
  <line class="" x1="225" y1="97" x2="230" y2="97" />
  <text x="222.5" y="98.1" font-size="2.8" text-anchor="end">RF_OUT</text>
  <line class="" x1="225" y1="119" x2="230" y2="119" />
  <text x="222.5" y="120.1" font-size="2.8" text-anchor="end">AF_OUT</text>
  <line class="" x1="225" y1="137" x2="230" y2="137" />
  <text x="222.5" y="138.1" font-size="2.8" text-anchor="end">SQ</text>
  <line class="" x1="225" y1="152" x2="230" y2="152" />
  <text x="222.5" y="153.1" font-size="2.8" text-anchor="end">TXD</text>
  <line class="" x1="225" y1="164" x2="230" y2="164" />
  <text x="222.5" y="165.1" font-size="2.8" text-anchor="end">RXD</text>
  <rect class="dash" x="138" y="86" width="34" height="38" rx="0" />
  <text x="155.0" y="92" font-size="3.1" text-anchor="middle">FM调制解调</text>
  <text x="155.0" y="99" font-size="2.8" text-anchor="middle">FM调制</text>
  <text x="155.0" y="105" font-size="2.8" text-anchor="middle">FM解调</text>
  <rect class="dash" x="180" y="87" width="33" height="24" rx="0" />
  <text x="196.5" y="93" font-size="3.1" text-anchor="middle">本振/混频</text>
  <rect class="dash" x="180" y="126" width="33" height="18" rx="0" />
  <text x="196.5" y="132" font-size="3.1" text-anchor="middle">中频放大</text>
  <rect class="dash" x="138" y="135" width="36" height="18" rx="0" />
  <text x="156.0" y="141" font-size="3.1" text-anchor="middle">静噪控制</text>
  <polyline class="arrow" marker-end="url(#arrow)" points="125,118 138,100 180,100" />
  <polyline class="arrow" marker-end="url(#arrow)" points="213,97 225,97" />
  <polyline class="arrow" marker-end="url(#arrow)" points="125,145 180,145 196,126" />
  <polyline class="arrow" marker-end="url(#arrow)" points="196,111 172,113" />
  <polyline class="arrow" marker-end="url(#arrow)" points="138,113 125,119" />
  <polyline class="arrow" marker-end="url(#arrow)" points="156,124 156,135" />
  <polyline class="arrow" marker-end="url(#arrow)" points="174,144 174,137 225,137" />
</svg>
